<svg xmlns="http://www.w3.org/2000/svg" viewBox="0 0 375.73 373.17"><defs><style>.cls-1{fill:#ff7f00;}</style></defs><title>Asset 2</title><g id="Layer_2" data-name="Layer 2"><g id="Layer_1-2" data-name="Layer 1"><path id="path2875" class="cls-1" d="M203.54,0c-5.2-.06-25.34,21.53-30.86,33.7-6.77,14.9-8.71,31.46-4.31,35.86,1.33,1.33,11.14,2.38,21.79,2.38,19.23,0,19.29-.07,19.29-11.23,0-6.18-2.76-15.87-6.13-21.56-5.12-8.67-5.43-12.64-1.93-24.06,2.3-7.49,3.63-14.18,3-14.87a1,1,0,0,0-.79-.23ZM108.79,15.66l-6.35,14.41c-7.5,17.1-6.06,44.06,3.06,58l6,9.19,18-9.87c9.92-5.47,18.13-11.46,18.16-13.28S140.22,63.93,131,55.49c-10.52-9.66-17.78-19.88-19.52-27.57Zm183.6,16.91A57,57,0,0,0,283,33.7c-20.1,3.68-42.63,18.13-49.13,31.55L228.17,77l17,10,16.91,9.87,6.35-7.38c3.63-4.26,6.35-13.45,6.35-21.33,0-10.88,2.31-15.7,10.89-22.92C296.45,36.23,298.83,32.57,292.39,32.57ZM35.15,74V87.6c0,16.62,11,39.07,24.06,49.36,11.78,9.27,21.58,9.77,24.28,1.25,1.11-3.49,5-10.94,8.62-16.57,6.39-9.93,6.39-10.37-.45-15.43-3.88-2.86-13-5.22-20.2-5.22-14.2,0-21-4-30.3-18Zm153.42,9c-76.86-1-134,83.79-90.55,156.59,12.11,20.28,37.26,40.19,58.33,46.3,35.48,10.28,78.23-.53,102.81-26,29.51-30.57,38.4-65.85,26.78-106.21-7-24.36-38.2-56.06-63.55-64.68A109,109,0,0,0,188.56,82.95ZM313.27,96.57c-7.8.35-14.73,1.54-18.61,3.74-17.36,9.87-17.36,9.52-6.58,28.82,10.13,18.14,10.33,18.27,20.2,13.16,5.48-2.84,12.48-10,15.55-15.89,3.38-6.54,9.52-11.62,15.55-12.94,20.42-4.47,21.24-5.51,10-11.46-7.77-4.11-23.09-6-36.08-5.45Zm4,67.52a22.81,22.81,0,0,0-7,.79c-5,1.53-6.35,6.06-6.35,21.11,0,10.52,1.16,20.23,2.5,21.56,4.27,4.27,13.61,2.6,27.57-4.88,12.65-6.78,14.48-7,26.78-1.82,15.28,6.39,17.9,5.34,12.37-5-8.38-15.66-37.6-31.45-55.83-31.77Zm-257.7,2.27c-6.78,0-17.4,2.58-23.6,5.67-10.25,5.11-12.34,5-22.69-.34-14.64-7.57-17.1-4.82-7.6,8.51a73.59,73.59,0,0,0,36.43,26.33,59.93,59.93,0,0,0,18.5,2.27c8.41-.62,9.2-2.21,10.21-21.56l1-20.88Zm16.57,60.14c-1.91.18-4.41,1.45-8.4,3.52-5.93,3.07-10.78,7.15-10.78,9.19,0,8.07-18,21.56-28.82,21.56C22,260.76,17,262.4,17,264.39s.41,3.71.91,3.74,7.44,2.34,15.43,5.22,17.93,5.36,22.13,5.45c10.53.22,31-7.08,38.69-13.73,5.49-4.75,5.7-6.28,1.36-11.23-2.77-3.17-7.71-11.08-11-17.59C80.81,229,79.29,226.2,76.11,226.49Zm226.27,1.59c-4.4,0-23.94,28.05-23.94,34.38,0,3.54,25.4,13.31,28.94,11.12,5.91-3.65,22,5.11,26.21,14.3,9.28,20.36,13.72,5.29,6-20.43-4.35-14.53-27.84-39.38-37.22-39.38Zm-189,46.75L107,282.78c-3.6,4.44-6.47,13.91-6.47,21.67,0,10.88-2.31,15.7-10.89,22.92-6,5-10.89,10.11-10.89,11.23,0,4.41,20.79,1.56,34.72-4.77,15.17-6.89,34.27-26.43,34.27-34.95,0-2.67-7.67-9.12-17.13-14.41Zm149.9,2.38c-3.34,0-7.93,2.69-16.11,7.38-9.73,5.57-18.15,10.51-18.72,10.89-3.61,2.42,8.83,19.25,19.29,26.1,9.67,6.33,13.07,11.46,14.87,22.69,1.28,8,2.83,14.52,3.52,14.52s4-5.24,7.38-11.69c6.89-13.33,8.06-45.13,2-55.72-5.65-9.93-8-14.22-12.26-14.18Zm-97.36,23.49v12c0,6.61,2.4,15.19,5.33,19.06,6.89,9.1,6.87,17.58,0,30.86-6.67,12.9-2,13.92,13.28,3.06,11.73-8.35,23.76-29.2,25-43.23,1.84-21.41,1.51-21.79-21.79-21.79H165.87Z"/></g></g></svg>